<?xml version="1.0" encoding="UTF-8"?>
<!-- Generator: Adobe Illustrator 17.0.0, SVG Export Plug-In . SVG Version: 6.00 Build 0)  -->
<!DOCTYPE svg PUBLIC "-//W3C//DTD SVG 1.1//EN" "http://www.w3.org/Graphics/SVG/1.1/DTD/svg11.dtd">
<svg version="1.1" id="Layer_1" xmlns="http://www.w3.org/2000/svg" xmlns:xlink="http://www.w3.org/1999/xlink" x="0px" y="0px" width="527.045px" height="395.398px" viewBox="0 0 527.045 395.398" enable-background="new 0 0 527.045 395.398" xml:space="preserve">
<g>
	<path fill="#E8EFBD" d="M372.895,363.122c5.11-12.646,1.533-34.046-8.686-54.473c-4.585-9.164-21.715-45.346-39.213-82.459   c-30.745-0.231-40.525-31.381-67.012-31.381c-26.585,0-43.423,31.391-56.716,31.391s-16.837-15.333-35.447-16   c-11.425-0.409-19.504,3.954-24.044,7.385c-18.831,39.967-38.329,81.191-43.268,91.063c-10.219,20.428-13.796,41.828-8.686,54.473   s13.314,19.455,20.949,19.455c30.454,0,210.719,0,241.173,0C359.581,382.577,367.785,375.767,372.895,363.122z"/>
	<path fill="none" stroke="#9DC34A" stroke-width="6" stroke-miterlimit="10" d="M172.249,56.151c0.008,0,0.016,0.001,0.024,0.001   C171.436,56.151,171.353,56.151,172.249,56.151z M290.468,56.151c-0.008,0-0.016,0.001-0.024,0.001   C291.281,56.151,291.365,56.151,290.468,56.151z M172.273,56.152c7.844,0.013,7.99,5.908,7.99,5.908l1.022,71.496   c0,0-72.556,154.665-82.776,175.092c-10.219,20.428-13.796,41.828-8.686,54.473s13.314,19.455,20.949,19.455   c30.454,0,210.719,0,241.173,0c7.635,0,15.84-6.809,20.949-19.455s1.533-34.046-8.686-54.473   c-10.219-20.427-82.776-175.092-82.776-175.092l1.022-71.496c0,0,0.145-5.896,7.99-5.908"/>
	<g>
		<g>
			<path fill="none" stroke="#A9A8A8" stroke-miterlimit="10" d="M299.282,237.567c0-0.837,0.014-1.669,0.043-2.498"/>
			<path fill="none" stroke="#A9A8A8" stroke-miterlimit="10" stroke-dasharray="5.0334,5.0334" d="M299.678,230.049     c4.659-43.773,49.775-73.891,102.151-75.705"/>
			<path fill="none" stroke="#A9A8A8" stroke-miterlimit="10" d="M404.346,154.279c0.832-0.014,1.665-0.022,2.501-0.022"/>
		</g>
	</g>
	<g>
		<path fill="#EF4136" d="M435.591,182.169c-4.028,0-8.011-0.694-11.838-2.062c-18.253-6.528-27.793-26.69-21.266-44.944    c4.99-13.954,18.294-23.329,33.106-23.329c4.028,0,8.011,0.694,11.838,2.062c8.843,3.163,15.925,9.579,19.941,18.068    s4.487,18.034,1.324,26.876C463.707,172.794,450.403,182.169,435.591,182.169z"/>
		<path fill="#F6A0A1" d="M435.593,113.565c3.736,0,7.535,0.631,11.255,1.961c17.384,6.217,26.436,25.349,20.22,42.732    c-4.886,13.664-17.753,22.181-31.477,22.181c-3.736,0-7.535-0.631-11.255-1.961c-17.384-6.217-26.436-25.349-20.22-42.732    C409.003,122.082,421.869,113.565,435.593,113.565 M435.594,110.104L435.594,110.104c-15.542,0-29.501,9.837-34.736,24.476    c-3.318,9.278-2.824,19.292,1.39,28.199c4.214,8.907,11.645,15.639,20.923,18.957c4.014,1.436,8.193,2.163,12.42,2.163    c15.541,0,29.5-9.836,34.735-24.476c6.849-19.153-3.16-40.307-22.313-47.156C444,110.832,439.821,110.104,435.594,110.104    L435.594,110.104z"/>
	</g>
	<g>
		<path fill="#EF4C48" d="M435.591,182.439c-4.059,0-8.072-0.699-11.929-2.078c-18.394-6.578-28.007-26.895-21.429-45.289    c5.028-14.061,18.435-23.508,33.36-23.508c4.059,0,8.072,0.699,11.929,2.078c8.91,3.187,16.047,9.652,20.094,18.207    c4.048,8.554,4.521,18.172,1.335,27.082C463.923,172.992,450.516,182.439,435.591,182.439z"/>
		<path fill="#F6A0A1" d="M435.593,113.565c3.736,0,7.535,0.631,11.255,1.961c17.384,6.217,26.436,25.349,20.22,42.732    c-4.886,13.664-17.753,22.181-31.477,22.181c-3.736,0-7.535-0.631-11.255-1.961c-17.384-6.217-26.436-25.349-20.22-42.732    C409.003,122.082,421.869,113.565,435.593,113.565 M435.594,109.565h-0.001c-15.768,0-29.931,9.98-35.243,24.834    c-3.366,9.414-2.866,19.575,1.41,28.611s11.815,15.868,21.229,19.234c4.073,1.456,8.313,2.195,12.602,2.195    c15.768,0,29.931-9.98,35.243-24.834c6.949-19.433-3.206-40.896-22.639-47.846C444.123,110.303,439.883,109.565,435.594,109.565    L435.594,109.565z"/>
	</g>
	<g>
		<path fill="#EF4C48" d="M467.067,158.261c-6.21,17.38-25.34,26.43-42.73,20.22c-6.53-2.34-11.89-6.5-15.7-11.71v-0.01l17.56-28.09    l17.27,12.01l25.07-9.33C469.497,146.841,469.077,152.641,467.067,158.261z"/>
	</g>
	<path fill="#EC6973" d="M467.068,158.258c1.158-3.239,1.785-6.538,1.928-9.804l-10.434-6.566l-11.232,11.052l-18.939-17.504   l-21.545,28.625c0.002,0.003,0.003,0.006,0.005,0.009l1.712,2.599c3.816,5.254,9.197,9.456,15.773,11.808   C441.72,184.695,460.851,175.642,467.068,158.258z"/>
	<polyline fill="none" stroke="#992B36" stroke-miterlimit="10" points="468.996,148.455 458.563,141.889 447.331,152.94    428.391,135.437 406.846,164.062 406.851,164.071  "/>
	<circle fill="#992B36" cx="428.322" cy="135.873" r="3.525"/>
	<circle fill="#992B36" cx="458.606" cy="142.398" r="3.525"/>
	<path fill="#A9A8A8" d="M279.381,237.695c3.631-8.224,13.242-11.948,21.466-8.317c8.224,3.631,11.948,13.242,8.317,21.466   l-6.735-2.973l-5.238,11.864c0.414,0.607,0.52,1.404,0.201,2.126c-0.491,1.111-1.789,1.614-2.9,1.124   c-1.111-0.491-1.614-1.789-1.124-2.9c0.272-0.616,0.795-1.036,1.394-1.212l5.315-12.039l-10.985-4.85l-5.278,11.955   c0.333,0.585,0.401,1.312,0.108,1.975c-0.491,1.111-1.789,1.614-2.9,1.124c-1.111-0.491-1.614-1.789-1.124-2.9   c0.293-0.663,0.875-1.103,1.532-1.251l5.278-11.955L279.381,237.695z"/>
	<g>
		<g>
			<path fill="none" stroke="#A9A8A8" stroke-miterlimit="10" d="M173.225,224.052c-0.802-0.238-1.598-0.485-2.388-0.742"/>
			<path fill="none" stroke="#A9A8A8" stroke-miterlimit="10" stroke-dasharray="5.091,5.091" d="M166.04,221.604     c-54.114-20.933-75.687-87.747-75.56-142.044"/>
			<path fill="none" stroke="#A9A8A8" stroke-miterlimit="10" d="M90.501,77.015c0.012-0.836,0.03-1.669,0.053-2.499"/>
		</g>
	</g>
	<path fill="#A9A8A8" d="M170.564,243.407c-8.122-3.856-11.58-13.565-7.724-21.687c3.856-8.122,13.565-11.58,21.687-7.724   l-3.157,6.651l11.715,5.562c0.618-0.397,1.418-0.481,2.131-0.143c1.097,0.521,1.564,1.833,1.044,2.93   c-0.521,1.097-1.833,1.564-2.93,1.044c-0.608-0.289-1.013-0.823-1.173-1.427l-11.889-5.644l-5.15,10.848l11.806,5.605   c0.594-0.317,1.322-0.365,1.977-0.054c1.097,0.521,1.564,1.833,1.044,2.93c-0.521,1.097-1.833,1.564-2.93,1.044   c-0.655-0.311-1.079-0.905-1.208-1.566L174,236.171L170.564,243.407z"/>
	<g>
		<g>
			<path fill="none" stroke="#A9A8A8" stroke-miterlimit="10" d="M164.472,306.137c-0.754,0.362-1.511,0.71-2.27,1.042"/>
			<path fill="none" stroke="#A9A8A8" stroke-miterlimit="10" stroke-dasharray="5.0334,5.0334" d="M157.524,309.035     c-41.475,14.751-88.157-12.877-112.468-59.304"/>
			<path fill="none" stroke="#A9A8A8" stroke-miterlimit="10" d="M43.907,247.49c-0.373-0.744-0.74-1.492-1.102-2.245"/>
		</g>
	</g>
	<path fill="#A9A8A8" d="M175.736,323.8c-8.831,1.683-17.355-4.112-19.038-12.943c-1.683-8.831,4.112-17.355,12.943-19.038   l1.378,7.232l12.739-2.428c0.264-0.686,0.86-1.226,1.635-1.373c1.193-0.227,2.345,0.556,2.572,1.749   c0.227,1.193-0.556,2.345-1.749,2.572c-0.661,0.126-1.304-0.066-1.789-0.459l-12.928,2.464l2.248,11.796l12.838-2.446   c0.292-0.607,0.852-1.075,1.564-1.211c1.193-0.227,2.345,0.556,2.572,1.749s-0.556,2.345-1.749,2.572   c-0.712,0.136-1.405-0.094-1.9-0.551l-12.838,2.446L175.736,323.8z"/>
	<g>
		<g>
			<path fill="none" stroke="#A9A8A8" stroke-miterlimit="10" d="M289.902,360.316c0.519,0.653,1.047,1.296,1.584,1.928"/>
			<path fill="none" stroke="#A9A8A8" stroke-miterlimit="10" stroke-dasharray="5.0835,5.0835" d="M294.905,366.005     c41.895,43.085,130.185,31.756,175.523-7.561"/>
			<path fill="none" stroke="#A9A8A8" stroke-miterlimit="10" d="M472.334,356.752c0.618-0.562,1.228-1.13,1.829-1.704"/>
		</g>
	</g>
	<path fill="#A9A8A8" d="M272.696,354.209l-9.002-9.474c-0.668,0.082-1.365-0.135-1.864-0.661c-0.837-0.88-0.801-2.273,0.08-3.109   c0.881-0.837,2.273-0.801,3.109,0.08c0.499,0.526,0.681,1.233,0.565,1.896l9.002,9.474l8.706-8.271l-9.065-9.541   c-0.623,0.036-1.257-0.183-1.721-0.671c-0.837-0.88-0.801-2.273,0.08-3.109s2.273-0.801,3.109,0.08   c0.543,0.572,0.712,1.358,0.527,2.069l8.933,9.402l5.337-5.071c6.192,6.518,5.929,16.821-0.589,23.014   c-6.518,6.192-16.821,5.929-23.013-0.589L272.696,354.209z"/>
	<g>
		<path fill="#E9C735" d="M485.86,359.165c-4.219,0-8.39-0.727-12.397-2.16c-19.116-6.837-29.106-27.951-22.27-47.067    c5.225-14.612,19.157-24.431,34.67-24.431c4.219,0,8.39,0.727,12.397,2.16c19.115,6.836,29.106,27.95,22.271,47.067    C515.305,349.347,501.372,359.165,485.86,359.165z"/>
		<g>
			<path fill="#F8DB87" d="M485.863,287.586c3.883,0,7.831,0.656,11.697,2.038c18.066,6.461,27.474,26.344,21.014,44.41     c-5.078,14.2-18.45,23.052-32.713,23.052c-3.883,0-7.831-0.656-11.697-2.038c-18.066-6.461-27.474-26.344-21.013-44.41     C458.228,296.438,471.6,287.587,485.863,287.586 M485.864,283.429h-0.001c-16.387,0-31.107,10.372-36.627,25.809     c-7.222,20.196,3.332,42.502,23.528,49.724c4.232,1.514,8.639,2.281,13.097,2.281c16.387,0,31.107-10.372,36.627-25.809     c7.222-20.196-3.332-42.502-23.528-49.724C494.727,284.196,490.321,283.429,485.864,283.429L485.864,283.429z"/>
		</g>
	</g>
	<path fill="#FFFFFF" d="M497.996,306.103h-33.822c-1.454,0-2.633,1.179-2.633,2.633v20.667c0,1.454,1.179,2.633,2.633,2.633h7.694   l12.224,8.235l-1.996-8.235h15.899c1.454,0,2.633-1.179,2.633-2.633v-20.667C500.629,307.281,499.45,306.103,497.996,306.103z"/>
	<g>
		
			<line fill="none" stroke="#606161" stroke-width="2" stroke-linecap="round" stroke-miterlimit="10" x1="468.752" y1="313.12" x2="493.418" y2="313.12"/>
		
			<line fill="none" stroke="#606161" stroke-width="2" stroke-linecap="round" stroke-miterlimit="10" x1="468.58" y1="319.12" x2="493.247" y2="319.12"/>
		
			<line fill="none" stroke="#606161" stroke-width="2" stroke-linecap="round" stroke-miterlimit="10" x1="468.58" y1="325.12" x2="493.247" y2="325.12"/>
	</g>
	<path fill="#937F2F" d="M512.902,330.267c0-5.408-5.797-9.793-12.947-9.793c-7.15,0-12.947,4.384-12.947,9.793   c0,3.982,3.143,7.409,7.655,8.94c0.703,0.238,1.441,0.428,2.204,0.569l-1.212,5.002l7.435-5.009   C508.724,338.708,512.902,334.857,512.902,330.267z"/>
	<circle fill="#BF6FAD" stroke="#D6B0CD" stroke-width="4" stroke-miterlimit="10" cx="38.891" cy="236.566" r="34.727"/>
	<path fill="#FFFFFF" d="M38.226,245.161c-0.035-0.406-0.383-0.702-0.783-0.667l-1.16,0.093c-0.354-1.218-0.934-2.325-1.676-3.294   l0.754-0.887c0.261-0.302,0.226-0.76-0.075-1.021l-2.122-1.815c-0.307-0.261-0.765-0.22-1.021,0.081l-0.76,0.887   c-1.073-0.586-2.262-0.98-3.514-1.148l-0.093-1.16c-0.029-0.4-0.377-0.696-0.777-0.661l-2.784,0.215   c-0.4,0.035-0.696,0.377-0.661,0.777l0.093,1.16c-1.218,0.36-2.325,0.939-3.3,1.682l-0.881-0.76   c-0.307-0.255-0.76-0.22-1.021,0.081l-1.815,2.122c-0.261,0.307-0.22,0.76,0.081,1.021l0.887,0.76   c-0.586,1.073-0.98,2.262-1.148,3.514l-1.16,0.093c-0.4,0.029-0.696,0.377-0.661,0.777l0.215,2.778   c0.035,0.4,0.377,0.702,0.777,0.667l1.16-0.093c0.36,1.212,0.939,2.325,1.682,3.294l-0.76,0.887   c-0.261,0.307-0.22,0.76,0.081,1.021l2.123,1.815c0.307,0.261,0.76,0.226,1.021-0.081l0.76-0.887   c1.073,0.586,2.262,0.98,3.514,1.148l0.093,1.16c0.029,0.394,0.377,0.696,0.777,0.661l2.778-0.215   c0.4-0.035,0.696-0.383,0.667-0.783l-0.093-1.16c1.212-0.354,2.325-0.934,3.294-1.676l0.887,0.754   c0.307,0.261,0.76,0.226,1.021-0.075l1.815-2.122c0.261-0.307,0.22-0.76-0.081-1.021l-0.887-0.76   c0.586-1.073,0.98-2.262,1.148-3.514l1.16-0.093c0.394-0.029,0.696-0.377,0.661-0.777L38.226,245.161z M27.063,254.179   c-3.706,0.29-6.942-2.476-7.232-6.176c-0.29-3.706,2.476-6.942,6.176-7.232c3.706-0.29,6.942,2.476,7.232,6.176   C33.529,250.653,30.762,253.889,27.063,254.179z"/>
	<path fill="#FFFFFF" d="M62.96,226.31c-0.046-0.537-0.506-0.928-1.036-0.882l-1.535,0.123c-0.468-1.611-1.235-3.077-2.218-4.359   l0.998-1.174c0.345-0.399,0.299-1.005-0.1-1.351l-2.809-2.402c-0.407-0.345-1.013-0.292-1.351,0.107l-1.005,1.174   c-1.42-0.775-2.993-1.297-4.65-1.519l-0.123-1.535c-0.038-0.529-0.499-0.921-1.028-0.875l-3.683,0.284   c-0.529,0.046-0.921,0.499-0.875,1.028l0.123,1.535c-1.611,0.476-3.077,1.243-4.366,2.225l-1.166-1.005   c-0.407-0.338-1.005-0.292-1.351,0.107l-2.402,2.809c-0.345,0.407-0.292,1.005,0.107,1.351l1.174,1.005   c-0.775,1.42-1.297,2.993-1.519,4.65l-1.535,0.123c-0.529,0.038-0.921,0.499-0.875,1.028l0.284,3.676   c0.046,0.529,0.499,0.928,1.028,0.882l1.535-0.123c0.476,1.604,1.243,3.077,2.225,4.359l-1.005,1.174   c-0.345,0.407-0.292,1.005,0.107,1.351l2.809,2.402c0.407,0.345,1.005,0.299,1.351-0.107l1.005-1.174   c1.42,0.775,2.993,1.297,4.65,1.519l0.123,1.535c0.038,0.522,0.499,0.921,1.028,0.875l3.676-0.284   c0.529-0.046,0.921-0.506,0.882-1.036l-0.123-1.535c1.604-0.468,3.077-1.235,4.359-2.218l1.174,0.998   c0.407,0.345,1.005,0.299,1.351-0.1l2.402-2.809c0.345-0.407,0.292-1.005-0.107-1.351l-1.174-1.005   c0.775-1.42,1.297-2.993,1.519-4.65l1.535-0.123c0.522-0.038,0.921-0.499,0.875-1.028L62.96,226.31z M48.189,238.242   c-4.903,0.384-9.185-3.277-9.569-8.172c-0.384-4.903,3.277-9.185,8.172-9.569c4.903-0.384,9.185,3.277,9.569,8.172   C56.745,233.576,53.084,237.858,48.189,238.242z"/>
	<circle fill="#6EBCE9" stroke="#A7DCF7" stroke-width="4" stroke-miterlimit="10" cx="81.445" cy="41.668" r="38.641"/>
	<g>
		
			<line fill="none" stroke="#FFFFFF" stroke-width="2.8518" stroke-linecap="round" stroke-miterlimit="10" x1="90.623" y1="16.565" x2="90.623" y2="26.504"/>
		
			<line fill="none" stroke="#FFFFFF" stroke-width="2.8518" stroke-linecap="round" stroke-miterlimit="10" x1="72.268" y1="16.565" x2="72.268" y2="26.504"/>
		<path fill="#FFFFFF" d="M92.901,44.238c-1.397-5.865-2.4-10.304-4.163-10.304c-1.762,0-12.823,0-14.585,0    c-1.762,0-2.765,4.439-4.163,10.304c-1.397,5.865-3.13,22.534-3.13,22.534h29.171C96.031,66.772,94.298,50.103,92.901,44.238z"/>
		<g>
			<path fill="#FFFFFF" d="M70.576,26.153c0,0-1.436,1.377-0.943,3.38c0.74,2.281,4.67,4.383,4.67,4.383h7.143     C81.445,25.687,72.439,24.6,70.576,26.153z"/>
			<path fill="#FFFFFF" d="M92.315,26.153c-1.863-1.553-10.869-0.466-10.869,7.764h7.143c0,0,3.93-2.103,4.67-4.383     C93.751,27.53,92.315,26.153,92.315,26.153z"/>
		</g>
	</g>
	<polygon fill="#5E696D" stroke="#C9C9C9" stroke-width="0.7992" stroke-miterlimit="10" points="101.507,54.353 90.554,43.635    90.62,58.708 93.73,56.282 97.622,63.848 99.939,62.471 96.071,54.957  "/>
	<polygon fill="none" stroke="#B3BC69" stroke-width="3" stroke-miterlimit="10" points="191.472,279.133 201.472,283.275    201.472,267.314 191.472,263.172  "/>
	<polygon fill="none" stroke="#B3BC69" stroke-width="3" stroke-miterlimit="10" points="326.504,347.305 322.362,357.305    338.323,357.305 342.465,347.305  "/>
	<ellipse fill="none" stroke="#B3BC69" stroke-width="3" stroke-miterlimit="10" cx="236.198" cy="330.218" rx="5.611" ry="5.906"/>
	<polygon fill="none" stroke="#B3BC69" stroke-width="3" stroke-miterlimit="10" points="284.381,297.728 274.381,301.87    274.381,285.91 284.381,281.768  "/>
	<ellipse fill="none" stroke="#B3BC69" stroke-width="3" stroke-miterlimit="10" cx="161.263" cy="352.305" rx="5.611" ry="5.906"/>
	<g>
		<circle fill="#CFCECE" cx="495.126" cy="330.536" r="1.368"/>
		<circle fill="#CFCECE" cx="499.954" cy="330.536" r="1.368"/>
		<circle fill="#CFCECE" cx="504.783" cy="330.536" r="1.368"/>
	</g>
	<path opacity="0.4" fill="#EF4C48" d="M467.067,158.261c-6.21,17.38-25.34,26.43-42.73,20.22c-6.53-2.34-11.89-6.5-15.7-11.71   v-0.01l19.685-17.007l14.854,11.141l25.361-19.544C469.497,146.841,469.077,152.641,467.067,158.261z"/>
	<polyline opacity="0.4" fill="none" stroke="#FFFFFF" stroke-linecap="round" stroke-miterlimit="10" points="408.883,166.967    408.883,166.957 428.568,149.95 443.422,161.091 468.783,141.547  "/>
	<g>
		<path fill="#F6A0A1" d="M435.593,113.565c3.736,0,7.535,0.631,11.255,1.961c17.384,6.217,26.436,25.349,20.22,42.732    c-4.886,13.664-17.753,22.181-31.477,22.181c-3.736,0-7.535-0.631-11.255-1.961c-17.384-6.217-26.436-25.349-20.22-42.732    C409.003,122.082,421.869,113.565,435.593,113.565 M435.594,109.565h-0.001c-15.768,0-29.931,9.98-35.243,24.834    c-3.366,9.414-2.866,19.575,1.41,28.611s11.815,15.868,21.229,19.234c4.073,1.456,8.313,2.195,12.602,2.195    c15.768,0,29.931-9.98,35.243-24.834c6.949-19.433-3.206-40.896-22.639-47.846C444.123,110.303,439.883,109.565,435.594,109.565    L435.594,109.565z"/>
	</g>
</g>
</svg>