<?xml version="1.0" encoding="UTF-8"?>
<!-- Generator: Adobe Illustrator 17.0.0, SVG Export Plug-In . SVG Version: 6.00 Build 0)  -->
<!DOCTYPE svg PUBLIC "-//W3C//DTD SVG 1.1//EN" "http://www.w3.org/Graphics/SVG/1.1/DTD/svg11.dtd">
<svg version="1.1" id="Layer_1" xmlns="http://www.w3.org/2000/svg" xmlns:xlink="http://www.w3.org/1999/xlink" x="0px" y="0px" width="492.664px" height="311.639px" viewBox="0 0 492.664 311.639" enable-background="new 0 0 492.664 311.639" xml:space="preserve">
<pattern x="-176.336" y="-137.361" width="139.333" height="150.035" patternUnits="userSpaceOnUse" id="New_Pattern_Swatch_1" viewBox="0 -150.035 139.333 150.035" overflow="visible">
	<g>
		<polygon fill="none" points="0,0 139.333,0 139.333,-150.035 0,-150.035   "/>
		<polygon points="7.333,0 0,0 0,-150.035 7.333,-150.035   "/>
		<polygon points="22,0 14.667,0 14.667,-150.035 22,-150.035   "/>
		<polygon points="36.667,0 29.333,0 29.333,-150.035 36.667,-150.035   "/>
		<polygon points="51.333,0 44,0 44,-150.035 51.333,-150.035   "/>
		<polygon points="66,0 58.667,0 58.667,-150.035 66,-150.035   "/>
		<polygon points="80.667,0 73.333,0 73.333,-150.035 80.667,-150.035   "/>
		<polygon points="95.333,0 88,0 88,-150.035 95.333,-150.035   "/>
		<polygon points="110,0 102.667,0 102.667,-150.035 110,-150.035   "/>
		<polygon points="124.667,0 117.333,0 117.333,-150.035 124.667,-150.035   "/>
		<polygon points="139.333,0 132,0 132,-150.035 139.333,-150.035   "/>
	</g>
</pattern>
<g>
	<g>
		<path fill="#F6E7C6" d="M453.552,295.907c-0.363,0-0.728-0.099-1.05-0.298l-103.555-63.856l-102.329,63.776    c-0.062,0.044-0.125,0.084-0.191,0.121c-0.305,0.169-0.642,0.254-0.979,0.254c-0.091,0-0.183-0.006-0.273-0.019    c-0.245-0.032-0.484-0.11-0.706-0.234c-0.067-0.037-0.131-0.078-0.192-0.122L141.942,231.75l-103.56,63.859    c-0.322,0.199-0.686,0.298-1.05,0.298c-0.379,0-0.758-0.107-1.089-0.322c-0.648-0.422-0.996-1.179-0.893-1.944L65.808,67.207    c0.079-0.59,0.417-1.115,0.923-1.43l91.372-57.015c0.325-0.203,0.692-0.303,1.059-0.303c0.43,0,0.858,0.138,1.216,0.412    l85.07,65.126l84.97-65.05c0.077-0.066,0.159-0.127,0.247-0.182c0.325-0.203,0.694-0.305,1.062-0.305    c0.064,0,0.127,0.003,0.19,0.009c0.188,0.017,0.373,0.061,0.553,0.132c0.147,0.059,0.286,0.134,0.413,0.224l91.27,56.951    c0.506,0.315,0.844,0.84,0.924,1.43l30.458,226.433c0.103,0.766-0.245,1.522-0.894,1.944    C454.311,295.799,453.931,295.907,453.552,295.907z"/>
		<path fill="#FFFFFF" d="M331.733,10.459l0.001,0.007l91.361,57.007l30.457,226.433L348.941,229.4l-103.486,64.497v0.01    l-0.008-0.005l-0.008,0.005v-0.01l-103.491-64.501L37.332,293.907L67.79,67.474l91.372-57.014l86.285,66.057l86.275-66.049    l-0.001-0.008l0.006,0.004L331.733,10.459 M159.162,6.459c-0.733,0-1.467,0.201-2.117,0.606L65.672,64.08    c-1.011,0.631-1.688,1.679-1.847,2.86L33.368,293.374c-0.206,1.532,0.489,3.046,1.786,3.888c0.662,0.43,1.42,0.645,2.179,0.645    c0.727,0,1.455-0.198,2.099-0.595l102.505-63.209l101.235,63.095c0.108,0.074,0.221,0.144,0.337,0.208    c0.604,0.333,1.271,0.499,1.937,0.499c0.168,0,0.336-0.011,0.503-0.032c0.497-0.062,0.986-0.218,1.439-0.468    c0.115-0.064,0.227-0.133,0.334-0.207l101.23-63.092l102.5,63.206c0.644,0.397,1.372,0.595,2.099,0.595    c0.759,0,1.517-0.215,2.179-0.645c1.297-0.842,1.992-2.356,1.786-3.888L427.059,66.94c-0.159-1.181-0.836-2.229-1.847-2.86    L333.973,7.149c-0.197-0.133-0.407-0.25-0.629-0.347c-0.518-0.228-1.068-0.34-1.615-0.34c-0.123,0-0.247,0.006-0.369,0.017    c-0.601,0.055-1.192,0.246-1.726,0.573c-0.167,0.102-0.324,0.215-0.471,0.338l-83.715,64.089L161.594,7.283    C160.879,6.736,160.022,6.459,159.162,6.459L159.162,6.459z"/>
	</g>
	<g>
		<polygon opacity="0.4" fill="#ECE6DD" points="142.003,229.396 37.387,293.907 67.845,67.474 159.217,10.459   "/>
		<polygon fill="#BDAF92" points="348.991,229.396 453.607,293.907 423.149,67.474 331.777,10.459   "/>
		<polygon fill="#BDAF92" points="245.442,76.522 159.149,10.459 141.935,229.396 245.442,293.907   "/>
		<polygon opacity="0.4" fill="#ECE6DD" points="245.494,76.522 331.788,10.459 349.002,229.396 245.494,293.907   "/>
	</g>
	<path fill="#FFFFFF" stroke="#B2B3B3" stroke-width="1.6719" stroke-miterlimit="10" d="M104.027,99.63   c0,5.54-4.491,10.032-10.032,10.032H56.378c-5.54,0-10.032-4.491-10.032-10.032V62.012c0-5.54,4.491-10.032,10.032-10.032h37.618   c5.54,0,10.032,4.491,10.032,10.032V99.63z"/>
	<path fill="#6EBCE9" d="M74.499,92.703c-12.689,0-22.975,7.373-22.975,16.467h45.95C97.475,100.076,87.188,92.703,74.499,92.703z"/>
	<polygon fill="#FFFFFF" points="68.691,92.703 80.308,92.703 74.499,105.417  "/>
	<g>
		<path fill="#EFD89C" d="M88.371,79.074c0,8.562-5.817,16.973-14.044,16.973S58.58,87.637,58.58,79.074s6.669-15.503,14.896-15.503    S88.371,70.512,88.371,79.074z"/>
	</g>
	<defs>
		<filter id="Adobe_OpacityMaskFilter" filterUnits="userSpaceOnUse" x="54.972" y="58.001" width="44.591" height="19.65">
			<feColorMatrix type="matrix" values="1 0 0 0 0  0 1 0 0 0  0 0 1 0 0  0 0 0 1 0"/>
		</filter>
	</defs>
	<mask maskUnits="userSpaceOnUse" x="54.972" y="58.001" width="44.591" height="19.65" id="SVGID_1_">
		<g filter="url(#Adobe_OpacityMaskFilter)">
			<ellipse fill="#EFD89C" cx="73.5" cy="78.455" rx="14.791" ry="14.897"/>
		</g>
	</mask>
	<g mask="url(#SVGID_1_)">
		<g>
			<g>
				<path fill="#A89685" d="M70.661,75.257c-5.908,2.788-12.575,1.523-14.893-2.826c-2.317-4.349,0.593-10.134,6.501-12.922      c5.908-2.788,12.575-1.523,14.893,2.826C79.48,66.683,76.569,72.469,70.661,75.257z"/>
			</g>
			<g>
				<path fill="#A89685" d="M92.808,60.413c5.894,3.561,8.408,9.767,5.615,13.861c-2.793,4.094-9.835,4.526-15.729,0.965      s-8.408-9.767-5.615-13.861C79.871,57.284,86.913,56.852,92.808,60.413z"/>
			</g>
		</g>
	</g>
	
		<circle fill="none" stroke="#4C4C4D" stroke-width="1.6719" stroke-linecap="round" stroke-miterlimit="10" cx="66.998" cy="83.022" r="4.626"/>
	
		<circle fill="none" stroke="#4C4C4D" stroke-width="1.6719" stroke-linecap="round" stroke-miterlimit="10" cx="79.953" cy="83.022" r="4.626"/>
	
		<line fill="none" stroke="#4C4C4D" stroke-width="1.6719" stroke-linecap="round" stroke-miterlimit="10" x1="71.624" y1="83.022" x2="75.328" y2="83.022"/>
	
		<line fill="none" stroke="#4C4C4D" stroke-width="1.6719" stroke-linecap="round" stroke-miterlimit="10" x1="58.226" y1="77.057" x2="62.373" y2="83.022"/>
	
		<line fill="none" stroke="#4C4C4D" stroke-width="1.6719" stroke-linecap="round" stroke-miterlimit="10" x1="88.726" y1="77.147" x2="84.579" y2="83.112"/>
	<path fill="none" stroke="#B2B3B3" stroke-width="2.1893" stroke-miterlimit="10" d="M104.384,99.63   c0,5.54-4.491,10.032-10.032,10.032H56.735c-5.54,0-10.032-4.491-10.032-10.032V62.012c0-5.54,4.491-10.032,10.032-10.032h37.618   c5.54,0,10.032,4.491,10.032,10.032V99.63z"/>
	<path fill="#67C39C" d="M3.072,38.972c0-9.445,10.123-17.101,22.61-17.101c12.487,0,22.61,7.656,22.61,17.101   c0,6.954-5.488,12.939-13.368,15.612c-1.228,0.416-2.516,0.747-3.848,0.994l2.117,8.735l-12.984-8.747   C10.366,53.714,3.072,46.989,3.072,38.972z"/>
	<g opacity="0.6">
		<g>
			<path fill="none" stroke="#C04027" stroke-width="2" stroke-miterlimit="10" d="M113.569,114.045     c-0.118,0.832-0.227,1.659-0.328,2.479"/>
			<path fill="none" stroke="#C04027" stroke-width="2" stroke-miterlimit="10" stroke-dasharray="5.0182,5.0182" d="     M112.73,121.517c-4.587,55.705,31.356,81.386,31.356,81.386s48.522,33.888,82.024,12.973"/>
			<path fill="none" stroke="#C04027" stroke-width="2" stroke-miterlimit="10" d="M228.197,214.487     c0.673-0.477,1.34-0.977,1.999-1.502"/>
		</g>
	</g>
	<g opacity="0.6">
		<g>
			<path fill="none" stroke="#C04027" stroke-width="2" stroke-miterlimit="10" d="M236.196,212.985     c0.639,0.547,1.28,1.079,1.924,1.596"/>
			<path fill="none" stroke="#C04027" stroke-width="2" stroke-miterlimit="10" stroke-dasharray="5.084,5.084" d="M242.189,217.63     c46.986,32.774,105.24-8.103,105.24-8.103s71.096-67.085,67.14-95.784"/>
			<path fill="none" stroke="#C04027" stroke-width="2" stroke-miterlimit="10" d="M414.008,111.271     c-0.261-0.8-0.596-1.562-1.008-2.282"/>
		</g>
	</g>
	<g opacity="0.6">
		<g>
			<path fill="none" stroke="#C04027" stroke-width="2" stroke-miterlimit="10" d="M405.102,103.845     c-0.789-0.078-1.621-0.145-2.49-0.2"/>
			<path fill="none" stroke="#C04027" stroke-width="2" stroke-miterlimit="10" stroke-dasharray="5.0181,5.0181" d="     M397.595,103.451c-21.919-0.393-58.194,3.966-58.194,3.966l-93.891,22.697c0,0-35.858,17.742-14.164,75.214"/>
			<path fill="none" stroke="#C04027" stroke-width="2" stroke-miterlimit="10" d="M232.253,207.669     c0.304,0.765,0.618,1.537,0.942,2.316"/>
		</g>
	</g>
	<g opacity="0.6">
		<g>
			<path fill="none" stroke="#C04027" stroke-width="2" stroke-miterlimit="10" d="M408.014,99.972     c-0.677-0.481-1.365-0.952-2.061-1.413"/>
			<path fill="none" stroke="#C04027" stroke-width="2" stroke-miterlimit="10" stroke-dasharray="4.9399,4.9399" d="     M401.756,95.961c-53.938-31.216-154.778-11.09-156.246-7.466c-1.594,1.205-71.86,17.902-122.137,20.912"/>
			<path fill="none" stroke="#C04027" stroke-width="2" stroke-miterlimit="10" d="M120.902,109.545     c-0.837,0.043-1.669,0.082-2.494,0.117"/>
		</g>
	</g>
	<circle fill="none" stroke="#C04027" stroke-width="1.2857" stroke-miterlimit="10" cx="116.231" cy="112.118" r="3"/>
	<circle fill="none" stroke="#C04027" stroke-width="1.2857" stroke-miterlimit="10" cx="233.196" cy="212.985" r="3"/>
	<circle fill="none" stroke="#C04027" stroke-width="1.2857" stroke-miterlimit="10" cx="411.446" cy="106.426" r="3"/>
	<g>
		<path fill="#FFFFFF" stroke="#B2B3B3" stroke-miterlimit="10" d="M449.747,160.926c0,5.091-4.127,9.217-9.217,9.217h-34.565    c-5.091,0-9.217-4.127-9.217-9.217v-34.565c0-5.091,4.127-9.217,9.217-9.217h34.565c5.091,0,9.217,4.127,9.217,9.217V160.926z"/>
		<g>
			<path fill="#775531" d="M424.053,128.297c0,0-12.348-2.089-14.195,11.735s-0.72,20.702-0.72,20.702l30.286,1.132     c0,0-0.806-15.81-2.151-22.031C434.971,129.183,424.053,128.297,424.053,128.297z"/>
			<path fill="#E9C735" d="M424.783,154.606c-11.461,0-20.752,6.659-20.752,14.874h41.505     C445.535,161.265,436.244,154.606,424.783,154.606z"/>
			<polygon fill="#FFFFFF" points="419.537,154.606 430.03,154.606 424.783,166.089    "/>
			<g>
				<path fill="#EFD89C" d="M437.313,142.295c0,7.734-5.255,15.331-12.685,15.331s-14.224-7.597-14.224-15.331      c0-7.734,6.024-14.003,13.455-14.003S437.313,134.561,437.313,142.295z"/>
			</g>
			<g>
				<g>
					<g>
						<path fill="#775531" d="M427.889,128.915c0.3,1.512,0.022,3.122-0.736,4.641c-1.058,2.125-3.056,4.073-5.737,5.339        c-3.694,1.746-7.719,1.733-10.539,0.256c1.215-6.172,6.621-10.823,13.105-10.823c0.792,0,1.566,0.069,2.321,0.205        L427.889,128.915z"/>
					</g>
					<g>
						<path fill="#775531" d="M426.304,128.533c-0.316,1.591-0.003,3.34,0.849,5.023c1.007,1.995,2.769,3.893,5.134,5.323        c1.623,0.982,3.343,1.626,5.02,1.942c-0.395-5.639-4.237-10.314-9.418-11.906L426.304,128.533z"/>
					</g>
				</g>
			</g>
			<path fill="#775531" d="M436.991,140.505c-1.676-0.316-3.397-0.96-5.02-1.942c-2.365-1.43-4.126-3.328-5.134-5.323     c-1.058,2.125-3.056,4.073-5.737,5.339c-3.694,1.746-7.719,1.733-10.539,0.256c1.216-6.172,6.621-10.823,13.105-10.823     c0.792,0,1.566,0.069,2.32,0.205c0.54,0.092,1.07,0.221,1.585,0.382C432.754,130.19,436.597,134.866,436.991,140.505z"/>
		</g>
		<g>
			<path fill="none" stroke="#B2B3B3" stroke-width="2" stroke-miterlimit="10" d="M449.747,160.926     c0,5.091-4.127,9.217-9.217,9.217h-34.565c-5.091,0-9.217-4.127-9.217-9.217v-34.565c0-5.091,4.127-9.217,9.217-9.217h34.565     c5.091,0,9.217,4.127,9.217,9.217V160.926z"/>
			<g>
				<path fill="#FFFFFF" d="M454.69,180.018v11.454c0,1.528-1.239,2.767-2.767,2.767h-52.268c-1.528,0-2.767-1.239-2.767-2.767      v-11.454c0-1.528,1.239-2.767,2.767-2.767h2.584l2.017-3.554l2.017,3.554h45.651C453.452,177.251,454.69,178.49,454.69,180.018z      "/>
				<g>
					
						<line fill="none" stroke="#A3A2A2" stroke-width="1.8122" stroke-linecap="round" stroke-miterlimit="10" x1="402.842" y1="182.172" x2="448.736" y2="182.172"/>
					
						<line fill="none" stroke="#A3A2A2" stroke-width="1.8122" stroke-linecap="round" stroke-miterlimit="10" x1="402.842" y1="185.918" x2="448.736" y2="185.918"/>
					
						<line fill="none" stroke="#A3A2A2" stroke-width="1.8122" stroke-linecap="round" stroke-miterlimit="10" x1="402.842" y1="189.663" x2="422.167" y2="189.663"/>
				</g>
			</g>
		</g>
	</g>
	<g>
		<path fill="#FFFFFF" d="M103.271,121.087v10.752c0,1.343-1.089,2.431-2.431,2.431H48.778c-1.343,0-2.431-1.089-2.431-2.431    v-10.752c0-1.343,1.089-2.431,2.431-2.431h2.271l1.772-3.122l1.772,3.122h46.247C102.182,118.656,103.271,119.744,103.271,121.087    z"/>
		<g>
			
				<line fill="none" stroke="#A3A2A2" stroke-width="1.9714" stroke-linecap="round" stroke-miterlimit="10" x1="50.984" y1="123.216" x2="97.642" y2="123.216"/>
			
				<line fill="none" stroke="#A3A2A2" stroke-width="1.9714" stroke-linecap="round" stroke-miterlimit="10" x1="50.984" y1="126.507" x2="97.642" y2="126.507"/>
			
				<line fill="none" stroke="#A3A2A2" stroke-width="1.9714" stroke-linecap="round" stroke-miterlimit="10" x1="50.984" y1="129.797" x2="70.631" y2="129.797"/>
		</g>
	</g>
	<g>
		<path fill="#FFFFFF" d="M298.909,64.207c-0.626-11.348,11.03-21.218,26.033-22.045c15.003-0.827,27.673,7.701,28.299,19.049    c0.461,8.356-5.737,15.91-15.027,19.643c-1.447,0.582-2.974,1.064-4.558,1.449l3.123,10.355l-16.181-9.65    C308.65,81.437,299.44,73.839,298.909,64.207z"/>
		<g>
			<rect x="315.479" y="57.626" fill="#CF5343" width="23.011" height="4.194"/>
			<polygon fill="#B83D34" points="317.137,55.911 336.975,55.911 338.49,57.626 315.479,57.626    "/>
			<rect x="316.035" y="61.82" fill="#DF5C4A" width="21.899" height="11.63"/>
			
				<pattern id="SVGID_2_" xlink:href="#New_Pattern_Swatch_1" patternTransform="matrix(1.09 -1.09 1.09 1.09 9021.5508 -7666.4927)">
			</pattern>
			<rect x="316.035" y="61.82" opacity="0.6" fill="url(#SVGID_2_)" width="21.899" height="11.63"/>
			<rect x="325.343" y="57.626" fill="#E2BC23" width="3.372" height="15.825"/>
			<rect x="325.353" y="57.297" fill="#C89E2D" width="3.372" height="0.329"/>
			<g>
				<path fill="none" stroke="#DDC045" stroke-width="1.5039" stroke-miterlimit="10" d="M318.974,52.566      c-0.192,1.397,0.719,4.101,7.888,3.979c0,0-1.002-5.954-5.103-5.863C320.361,50.743,319.148,51.3,318.974,52.566z"/>
				<path fill="none" stroke="#DDC045" stroke-width="1.5039" stroke-miterlimit="10" d="M334.75,52.566      c0.192,1.397-0.719,4.101-7.888,3.979c0,0,1.002-5.954,5.103-5.863C333.362,50.743,334.576,51.3,334.75,52.566z"/>
			</g>
			<rect x="316.035" y="61.82" width="21.899" height="0.564"/>
		</g>
	</g>
	<g>
		<path fill="#E9C735" d="M84.602,184.612c0-11.581,12.412-20.969,27.724-20.969c15.311,0,27.723,9.388,27.723,20.969    c0,8.527-6.73,15.866-16.391,19.142c-1.505,0.511-3.085,0.916-4.718,1.218l2.596,10.711l-15.921-10.725    C93.546,202.688,84.602,194.441,84.602,184.612z"/>
		<g>
			<path fill="#96622E" d="M125.315,185.143c0,1.453-1.178,2.632-2.632,2.632c0,0-5.321,0.227-7.217,0.591     c-1.785,0.343-3.159,2.398-3.313,2.637h-0.015c-0.155-0.239-1.529-2.294-3.313-2.637c-1.895-0.364-7.217-0.591-7.217-0.591     l0.001-0.027c-1.284-0.175-2.274-1.273-2.274-2.605c0-1.406,1.103-2.551,2.491-2.625l0-0.007h3.335     c-0.312-0.76-0.503-1.581-0.55-2.441c-1.926-0.487-3.351-2.23-3.351-4.307c0-2.454,1.989-4.443,4.442-4.443     c1.312,0,2.49,0.569,3.304,1.473c0.954-0.437,2.014-0.682,3.132-0.682c1.105,0,2.153,0.24,3.099,0.667     c0.813-0.896,1.986-1.458,3.291-1.458c2.454,0,4.442,1.989,4.442,4.443c0,2.06-1.402,3.792-3.304,4.295     c-0.046,0.865-0.238,1.69-0.551,2.454h3.349l0,0.011c0.072-0.006,0.145-0.011,0.218-0.011     C124.137,182.511,125.315,183.689,125.315,185.143z M106.788,190.222c-2.353,0-4.26,1.949-4.26,4.353s1.907,4.353,4.26,4.353     c2.353,0,4.26-1.949,4.26-4.353S109.141,190.222,106.788,190.222z M117.611,190.224c-2.353,0-4.26,1.948-4.26,4.351     c0,2.403,1.907,4.351,4.26,4.351s4.26-1.948,4.26-4.351C121.871,192.173,119.964,190.224,117.611,190.224z"/>
			<ellipse fill="#593913" cx="112.325" cy="181.828" rx="4.039" ry="3.296"/>
			<ellipse fill="#AF8052" cx="112.325" cy="180.524" rx="2.441" ry="1.992"/>
		</g>
	</g>
	<path fill="#D1D2D1" d="M180.894,107.609c0,0.714-0.579,1.292-1.292,1.292l0,0c-0.714,0-1.292-0.578-1.292-1.292l0,0   c0-0.714,0.579-1.292,1.292-1.292l0,0C180.315,106.317,180.894,106.896,180.894,107.609L180.894,107.609z"/>
	<g>
		<path fill="#9D79A5" d="M151.179,105.424c0-11.873,12.725-21.498,28.423-21.498c15.697,0,28.423,9.625,28.423,21.498    c0,8.742-6.899,16.266-16.805,19.625c-1.543,0.523-3.163,0.939-4.837,1.249l2.661,10.981l-16.323-10.996    C160.349,123.956,151.179,115.502,151.179,105.424z"/>
		<path fill="#27282B" d="M189.446,120.473c0,0.786-0.678,1.423-1.514,1.423H172.79c-0.836,0-1.514-0.637-1.514-1.423V90.871    c0-0.786,0.678-1.423,1.514-1.423h15.142c0.836,0,1.514,0.637,1.514,1.423V120.473z"/>
		<rect x="173.049" y="93.21" fill="#E2E2E2" width="14.623" height="23.17"/>
		<path fill="#D1D2D1" d="M181.904,91.297c0,0.093-0.025,0.169-0.055,0.169h-2.975c-0.031,0-0.055-0.076-0.055-0.169l0,0    c0-0.093,0.025-0.169,0.055-0.169h2.975C181.879,91.128,181.904,91.204,181.904,91.297L181.904,91.297z"/>
	</g>
	<path fill="#FFFFFF" stroke="#B2B3B3" stroke-width="1.551" stroke-miterlimit="10" d="M290.233,199.894   c0,5.139-4.166,9.306-9.306,9.306h-34.897c-5.139,0-9.306-4.166-9.306-9.306v-34.897c0-5.139,4.166-9.306,9.306-9.306h34.897   c5.139,0,9.306,4.166,9.306,9.306V199.894z"/>
	<g>
		<path fill="#FFFFFF" d="M294.868,219.754v11.334c0,1.512-1.226,2.738-2.738,2.738h-51.721c-1.512,0-2.738-1.226-2.738-2.738    v-11.334c0-1.512,1.226-2.738,2.738-2.738h2.557l1.996-3.516l1.996,3.516h45.173C293.642,217.016,294.868,218.242,294.868,219.754    z"/>
		
			<line fill="none" stroke="#A3A2A2" stroke-width="1.8122" stroke-linecap="round" stroke-miterlimit="10" x1="243.563" y1="221.886" x2="288.976" y2="221.886"/>
		
			<line fill="none" stroke="#A3A2A2" stroke-width="1.8122" stroke-linecap="round" stroke-miterlimit="10" x1="243.563" y1="225.592" x2="288.976" y2="225.592"/>
		
			<line fill="none" stroke="#A3A2A2" stroke-width="1.8122" stroke-linecap="round" stroke-miterlimit="10" x1="243.563" y1="229.298" x2="262.685" y2="229.298"/>
		<g>
			<path fill="#67C39C" d="M263.018,193.718c-11.711,0-21.205,6.805-21.205,15.199h42.411     C284.223,200.523,274.729,193.718,263.018,193.718z"/>
			<polygon fill="#FFFFFF" points="257.657,193.718 268.379,193.718 263.018,205.452    "/>
			<g>
				<path fill="#EFD89C" d="M275.822,181.139c0,7.903-5.369,15.665-12.962,15.665c-7.593,0-14.534-7.763-14.534-15.665      c0-7.903,6.155-14.309,13.748-14.309C269.666,166.83,275.822,173.236,275.822,181.139z"/>
			</g>
			<defs>
				<filter id="Adobe_OpacityMaskFilter_1_" filterUnits="userSpaceOnUse" x="244.995" y="161.689" width="41.156" height="18.136">
					<feColorMatrix type="matrix" values="1 0 0 0 0  0 1 0 0 0  0 0 1 0 0  0 0 0 1 0"/>
				</filter>
			</defs>
			<mask maskUnits="userSpaceOnUse" x="244.995" y="161.689" width="41.156" height="18.136" id="SVGID_3_">
				<g filter="url(#Adobe_OpacityMaskFilter_1_)">
					<ellipse fill="#EFD89C" cx="262.096" cy="180.568" rx="13.651" ry="13.75"/>
				</g>
			</mask>
			<g mask="url(#SVGID_3_)">
				<path fill="#94754B" d="M259.476,177.616c-5.453,2.573-11.607,1.405-13.746-2.609c-2.139-4.014,0.548-9.354,6-11.927      c5.453-2.573,11.607-1.405,13.746,2.609C267.615,169.702,264.928,175.042,259.476,177.616z"/>
				<path fill="#775531" d="M279.916,163.915c5.44,3.287,7.76,9.014,5.183,12.793c-2.578,3.779-9.077,4.177-14.518,0.891      c-5.44-3.287-7.76-9.014-5.183-12.793S274.476,160.628,279.916,163.915z"/>
			</g>
		</g>
		<path fill="none" stroke="#B2B3B3" stroke-width="2.1316" stroke-miterlimit="10" d="M290.233,199.894    c0,5.139-4.166,9.306-9.306,9.306h-34.897c-5.139,0-9.306-4.166-9.306-9.306v-34.897c0-5.139,4.166-9.306,9.306-9.306h34.897    c5.139,0,9.306,4.166,9.306,9.306V199.894z"/>
	</g>
	<path fill="#F6A0A1" d="M489.093,100.081c0-10.808-11.584-19.569-25.873-19.569c-14.289,0-25.873,8.761-25.873,19.569   c0,7.958,6.28,14.807,15.297,17.865c1.405,0.477,2.879,0.855,4.403,1.137l-2.423,9.996l14.858-10.01   C480.746,116.951,489.093,109.255,489.093,100.081z"/>
	<path fill="#96622E" d="M478.528,109.068c0,1.097-0.889,1.986-1.986,1.986h-26.644c-1.097,0-1.986-0.889-1.986-1.986l4.36-14.611   c0-1.097,0.889-1.986,1.986-1.986h16.829c1.097,0,1.986,0.889,1.986,1.986L478.528,109.068z"/>
	<ellipse fill="none" stroke="#3B3544" stroke-miterlimit="10" cx="462.859" cy="91.549" rx="6.115" ry="6.318"/>
	<path fill="#B2794B" d="M472.659,94.135c0,5.588-4.389,10.124-9.802,10.124c-5.409,0-9.798-4.536-9.798-10.124   c0-0.425,0.024-0.838,0.075-1.247v-0.004c0.334-0.258,0.751-0.413,1.207-0.413h16.828c0.564,0,1.076,0.234,1.438,0.616v0.004   C472.643,93.436,472.659,93.782,472.659,94.135z"/>
	<circle fill="#4C4C4D" cx="463.156" cy="101.639" r="1.107"/>
	<path fill="#9BD2EE" d="M342.93,145.524c0-11.777-12.622-21.323-28.193-21.323c-15.57,0-28.192,9.547-28.192,21.323   c0,8.671,6.844,16.134,16.668,19.466c1.531,0.519,3.137,0.931,4.798,1.239l-2.64,10.892l16.19-10.907   C333.834,163.906,342.93,155.52,342.93,145.524z"/>
	<path fill="#4C4C4D" d="M328.822,134.612h-9.632c0.015-0.096,0.025-0.193,0.025-0.293c0-1.025-0.831-1.856-1.856-1.856h-4.295   c-1.025,0-1.856,0.831-1.856,1.856c0,0.1,0.01,0.197,0.025,0.293h-8.582c-2.021,0-3.658,1.471-3.658,3.286v14.131   c0,1.815,1.638,3.286,3.658,3.286h26.169c2.021,0,3.658-1.471,3.658-3.286v-14.131   C332.481,136.083,330.843,134.612,328.822,134.612z"/>
	<circle fill="#4C4C4D" stroke="#FFFFFF" stroke-width="2.5" stroke-miterlimit="10" cx="321.74" cy="145.521" r="6.47"/>
	<rect x="302.24" y="137.151" fill="#FDFDFE" width="5.515" height="2.539"/>
	<polygon fill="#27282B" points="12.001,30.958 12.001,47.697 23.677,47.697 23.677,48.791 27.394,48.791 27.394,47.697    39.255,47.697 39.255,30.958  "/>
	<rect x="12.895" y="29.199" fill="#636464" width="25.103" height="17.486"/>
	<rect x="13.968" y="28.126" fill="#FFFFFF" width="22.957" height="17.486"/>
	<line fill="none" stroke="#636464" stroke-miterlimit="10" x1="25.628" y1="28.126" x2="25.628" y2="45.613"/>
	<g>
		
			<circle fill="none" stroke="#6D6E71" stroke-width="7" stroke-linecap="round" stroke-miterlimit="10" cx="241.46" cy="54.844" r="24.791"/>
		<g>
			
				<circle opacity="0.6" fill="#D3E2EE" stroke="#6D6E71" stroke-width="7" stroke-linecap="round" stroke-miterlimit="10" cx="241.46" cy="54.844" r="24.791"/>
			<circle fill="#FFFFFF" cx="239.343" cy="42.672" r="5.906"/>
			
				<line fill="#B3CEE6" stroke="#6D6E71" stroke-width="7" stroke-linecap="round" stroke-miterlimit="10" x1="257.366" y1="75.028" x2="281.425" y2="101.024"/>
		</g>
	</g>
</g>
</svg>